<svg width="829" height="642" viewBox="0 0 829 642" fill="none" xmlns="http://www.w3.org/2000/svg">
<path d="M659.789 132.721H659.772C659.843 131.034 659.906 129.344 659.906 127.64C659.906 59.267 602.239 0 531.103 0C479.093 0 434.314 33.485 413.978 76.14H413.952C393.616 33.484 348.837 0 296.827 0C225.69 0 168.023 59.266 168.023 127.64C168.023 129.344 168.086 131.034 168.157 132.721H168.14C168.14 132.721 160.869 213.943 251.258 302.621C292.354 343.799 338.317 382.931 413.964 444.419C489.612 382.93 535.574 343.798 576.671 302.621C667.061 213.944 659.789 132.721 659.789 132.721Z" fill="url(#paint0_radial_129_495)"/>
<path d="M116.867 412.079C116.867 412.079 90.5562 359.458 73.6422 345.362C56.7282 331.267 64.2452 311.534 95.2552 316.232C126.264 320.93 168.549 376.371 189.222 401.742C209.895 427.113 233.387 428.992 233.387 428.992C309.5 440.268 331.844 445.662 373.502 511.439C427.052 595.991 386.657 635.475 330.277 631.717C273.897 627.958 243.827 599.768 243.827 599.768C243.827 599.768 163.851 549.27 132.842 535.175C101.833 521.08 33.2373 377.311 17.2623 338.784C1.28826 300.258 13.5033 163.066 36.0553 164.005C58.6073 164.945 70.8232 178.1 70.8232 227.903C70.8232 277.705 75.5222 301.197 75.5222 301.197" stroke="#246427" stroke-width="20" stroke-miterlimit="10" stroke-linecap="round" stroke-linejoin="round"/>
<path d="M711.758 412.079C711.758 412.079 738.069 359.458 754.983 345.362C771.897 331.267 764.38 311.534 733.371 316.232C702.362 320.93 660.077 376.371 639.403 401.742C618.73 427.113 595.239 428.992 595.239 428.992C519.126 440.268 496.782 445.662 455.124 511.439C401.574 595.991 441.969 635.475 498.349 631.717C554.73 627.958 584.799 599.768 584.799 599.768C584.799 599.768 664.776 549.27 695.785 535.175C726.794 521.08 795.39 377.311 811.364 338.784C827.339 300.258 815.123 163.066 792.571 164.005C770.019 164.945 757.803 178.1 757.803 227.903C757.803 277.705 753.105 301.197 753.105 301.197" stroke="#246427" stroke-width="20" stroke-miterlimit="10" stroke-linecap="round" stroke-linejoin="round"/>
<defs>
<radialGradient id="paint0_radial_129_495" cx="0" cy="0" r="1" gradientUnits="userSpaceOnUse" gradientTransform="translate(414.19 -75.5) rotate(-89.4267) scale(521.598 577.358)">
<stop offset="0.0144231" stop-color="#59B55D"/>
<stop offset="0.735577" stop-color="#246427"/>
</radialGradient>
</defs>
</svg>
