<svg width="813" height="634" viewBox="0 0 813 634" fill="none" xmlns="http://www.w3.org/2000/svg">
<path d="M523.103 2C593.129 2 649.905 60.367 649.905 127.64C649.905 129.298 649.844 130.952 649.773 132.637C649.767 132.796 649.781 132.954 649.812 133.107C649.822 133.251 649.836 133.468 649.851 133.756C649.88 134.346 649.914 135.235 649.925 136.403C649.947 138.741 649.88 142.199 649.52 146.636C648.799 155.509 646.906 168.292 642.211 183.839C632.824 214.919 612.217 257.099 567.271 301.193C567.265 301.198 567.26 301.203 567.255 301.208C526.466 342.076 480.856 380.944 405.963 441.84C331.071 380.946 285.461 342.077 244.673 301.208C244.668 301.203 244.663 301.198 244.658 301.193C199.713 257.099 179.105 214.919 169.718 183.839C165.022 168.292 163.13 155.509 162.409 146.636C162.049 142.199 161.982 138.74 162.004 136.402C162.015 135.234 162.047 134.346 162.077 133.756C162.091 133.473 162.104 133.258 162.114 133.114C162.146 132.958 162.162 132.798 162.155 132.637C162.084 130.952 162.022 129.298 162.022 127.64C162.023 60.366 218.799 2 288.827 2C339.967 2.00021 384.098 34.9471 404.146 77.001C404.478 77.6968 405.181 78.1396 405.952 78.1396H405.978C406.749 78.1396 407.451 77.6969 407.783 77.001C427.832 34.948 471.963 2.00005 523.103 2Z" fill="url(#paint0_linear_129_502)" stroke="url(#paint1_linear_129_502)" stroke-width="4" stroke-linejoin="round"/>
<path d="M108.867 412.079C108.867 412.079 82.5562 359.458 65.6422 345.362C48.7282 331.267 56.2452 311.534 87.2552 316.232C118.264 320.93 160.549 376.371 181.222 401.742C201.895 427.113 225.387 428.992 225.387 428.992C301.5 440.268 323.844 445.662 365.502 511.439C419.052 595.991 378.657 635.475 322.277 631.717C265.897 627.958 235.827 599.768 235.827 599.768C235.827 599.768 155.851 549.27 124.842 535.175C93.8332 521.08 25.2373 377.311 9.26226 338.784C-6.71174 300.258 5.50326 163.066 28.0553 164.005C50.6073 164.945 62.8232 178.1 62.8232 227.903C62.8232 277.705 67.5222 301.197 67.5222 301.197" fill="url(#paint2_linear_129_502)"/>
<path d="M108.867 412.079C108.867 412.079 82.5562 359.458 65.6422 345.362C48.7282 331.267 56.2452 311.534 87.2552 316.232C118.264 320.93 160.549 376.371 181.222 401.742C201.895 427.113 225.387 428.992 225.387 428.992C301.5 440.268 323.844 445.662 365.502 511.439C419.052 595.991 378.657 635.475 322.277 631.717C265.897 627.958 235.827 599.768 235.827 599.768C235.827 599.768 155.851 549.27 124.842 535.175C93.8332 521.08 25.2373 377.311 9.26226 338.784C-6.71174 300.258 5.50326 163.066 28.0553 164.005C50.6073 164.945 62.8232 178.1 62.8232 227.903C62.8232 277.705 67.5222 301.197 67.5222 301.197" stroke="url(#paint3_linear_129_502)" stroke-width="4" stroke-miterlimit="10" stroke-linecap="round" stroke-linejoin="round"/>
<path d="M703.758 412.079C703.758 412.079 730.069 359.458 746.983 345.362C763.897 331.267 756.38 311.534 725.371 316.232C694.362 320.93 652.077 376.371 631.403 401.742C610.73 427.113 587.239 428.992 587.239 428.992C511.126 440.268 488.782 445.662 447.124 511.439C393.574 595.991 433.969 635.475 490.349 631.717C546.73 627.958 576.799 599.768 576.799 599.768C576.799 599.768 656.776 549.27 687.785 535.175C718.794 521.08 787.39 377.311 803.364 338.784C819.339 300.258 807.123 163.066 784.571 164.005C762.019 164.945 749.803 178.1 749.803 227.903C749.803 277.705 745.105 301.197 745.105 301.197" fill="url(#paint4_linear_129_502)"/>
<path d="M703.758 412.079C703.758 412.079 730.069 359.458 746.983 345.362C763.897 331.267 756.38 311.534 725.371 316.232C694.362 320.93 652.077 376.371 631.403 401.742C610.73 427.113 587.239 428.992 587.239 428.992C511.126 440.268 488.782 445.662 447.124 511.439C393.574 595.991 433.969 635.475 490.349 631.717C546.73 627.958 576.799 599.768 576.799 599.768C576.799 599.768 656.776 549.27 687.785 535.175C718.794 521.08 787.39 377.311 803.364 338.784C819.339 300.258 807.123 163.066 784.571 164.005C762.019 164.945 749.803 178.1 749.803 227.903C749.803 277.705 745.105 301.197 745.105 301.197" stroke="url(#paint5_linear_129_502)" stroke-width="4" stroke-miterlimit="10" stroke-linecap="round" stroke-linejoin="round"/>
<defs>
<linearGradient id="paint0_linear_129_502" x1="405.964" y1="0" x2="405.964" y2="444.419" gradientUnits="userSpaceOnUse">
<stop offset="0.288462" stop-color="#81C784"/>
<stop offset="0.918269" stop-color="#F1F8E9"/>
</linearGradient>
<linearGradient id="paint1_linear_129_502" x1="405.964" y1="0" x2="405.964" y2="444.419" gradientUnits="userSpaceOnUse">
<stop stop-color="#F1F8E9"/>
<stop offset="0.711538" stop-color="#81C784"/>
</linearGradient>
<linearGradient id="paint2_linear_129_502" x1="196.313" y1="164" x2="196.313" y2="631.962" gradientUnits="userSpaceOnUse">
<stop offset="0.46429" stop-color="#81C784"/>
<stop offset="0.918269" stop-color="#F1F8E9"/>
</linearGradient>
<linearGradient id="paint3_linear_129_502" x1="196.313" y1="164" x2="196.313" y2="631.962" gradientUnits="userSpaceOnUse">
<stop stop-color="#F1F8E9"/>
<stop offset="0.711538" stop-color="#81C784"/>
</linearGradient>
<linearGradient id="paint4_linear_129_502" x1="616.314" y1="164" x2="616.314" y2="631.962" gradientUnits="userSpaceOnUse">
<stop offset="0.46429" stop-color="#81C784"/>
<stop offset="0.918269" stop-color="#F1F8E9"/>
</linearGradient>
<linearGradient id="paint5_linear_129_502" x1="616.314" y1="164" x2="616.314" y2="631.962" gradientUnits="userSpaceOnUse">
<stop stop-color="#F1F8E9"/>
<stop offset="0.711538" stop-color="#81C784"/>
</linearGradient>
</defs>
</svg>
